<svg xmlns="http://www.w3.org/2000/svg" x="0px" y="0px"
width="26" height="26"
viewBox="0 0 226 226"
style=" fill:#000000;"><g transform="translate(2.486,2.486) scale(0.978,0.978)"><g fill="none" fill-rule="nonzero" stroke="none" stroke-width="none" stroke-linecap="butt" stroke-linejoin="none" stroke-miterlimit="10" stroke-dasharray="" stroke-dashoffset="0" font-family="none" font-weight="none" font-size="none" text-anchor="none" style="mix-blend-mode: normal"><g fill="#425e56" stroke="#6c9b8d" stroke-width="5" stroke-linejoin="round"><path d="M130.38462,-0.27163c7.26623,0 14.39663,1.42609 19.55769,6.51923c5.16106,5.09315 6.79087,12.32542 6.79087,19.82933h34.4976c4.78756,0 8.69231,3.90475 8.69231,8.69231h8.69231v17.38462h-191.23077v-17.38462h8.69231c0,-4.78756 3.90475,-8.69231 8.69231,-8.69231h34.4976c0,-7.5039 1.62981,-14.73617 6.79087,-19.82933c5.16106,-5.09314 12.29147,-6.51923 19.55769,-6.51923zM88.82452,19.28606c-0.54327,0.50932 -1.62981,1.93539 -1.62981,6.79087h51.61058c0,-4.85547 -1.08654,-6.28155 -1.62981,-6.79087c-0.54327,-0.50932 -2.03726,-1.62981 -6.79087,-1.62981h-34.76923c-4.75361,0 -6.2476,1.12049 -6.79087,1.62981zM191.23077,60.84615v139.07692c0,14.36268 -11.71424,26.07692 -26.07692,26.07692h-104.30769c-14.36268,0 -26.07692,-11.71424 -26.07692,-26.07692v-139.07692zM69.53846,191.23077h17.38462v-104.30769h-17.38462zM104.30769,191.23077h17.38462v-104.30769h-17.38462zM139.07692,191.23077h17.38462v-104.30769h-17.38462z"></path></g><path d="M0,226v-226h226v226z" fill="none" stroke="none" stroke-width="1" stroke-linejoin="miter"></path><g fill="#425e56" stroke="none" stroke-width="1" stroke-linejoin="miter"><path d="M95.61538,-0.27163c-7.26622,0 -14.39663,1.42609 -19.55769,6.51923c-5.16106,5.09315 -6.79087,12.32542 -6.79087,19.82933h-34.4976c-4.78756,0 -8.69231,3.90475 -8.69231,8.69231h-8.69231v17.38462h191.23077v-17.38462h-8.69231c0,-4.78756 -3.90475,-8.69231 -8.69231,-8.69231h-34.4976c0,-7.5039 -1.62981,-14.73617 -6.79087,-19.82933c-5.16106,-5.09314 -12.29146,-6.51923 -19.55769,-6.51923zM95.61538,17.65625h34.76923c4.75361,0 6.2476,1.12049 6.79087,1.62981c0.54327,0.50932 1.62981,1.93539 1.62981,6.79087h-51.61058c0,-4.85547 1.08654,-6.28155 1.62981,-6.79087c0.54327,-0.50932 2.03726,-1.62981 6.79087,-1.62981zM34.76923,60.84615v139.07692c0,14.36268 11.71424,26.07692 26.07692,26.07692h104.30769c14.36268,0 26.07692,-11.71424 26.07692,-26.07692v-139.07692zM69.53846,86.92308h17.38462v104.30769h-17.38462zM104.30769,86.92308h17.38462v104.30769h-17.38462zM139.07692,86.92308h17.38462v104.30769h-17.38462z"></path></g><path d="" fill="none" stroke="none" stroke-width="1" stroke-linejoin="miter"></path></g></g></svg>